<svg xmlns="http://www.w3.org/2000/svg" xmlns:xlink="http://www.w3.org/1999/xlink" width="176" zoomAndPan="magnify" viewBox="0 0 132 47.25" height="63" preserveAspectRatio="xMidYMid meet" version="1.0"><defs><g/><clipPath id="423e2016b7"><path d="M 5 7 L 15 7 L 15 17 L 5 17 Z M 5 7 " clip-rule="nonzero"/></clipPath><clipPath id="fab2264afc"><path d="M 10.324219 7.402344 L 14.242188 11.542969 L 9.257812 16.261719 L 5.335938 12.121094 Z M 10.324219 7.402344 " clip-rule="nonzero"/></clipPath><clipPath id="0ff0deaec5"><path d="M 0.285156 0.324219 L 9.261719 0.324219 L 9.261719 9.300781 L 0.285156 9.300781 Z M 0.285156 0.324219 " clip-rule="nonzero"/></clipPath><clipPath id="ec3dd458e7"><path d="M 5.324219 0.402344 L 9.242188 4.542969 L 4.257812 9.261719 L 0.335938 5.121094 Z M 5.324219 0.402344 " clip-rule="nonzero"/></clipPath><clipPath id="59731eef30"><rect x="0" width="10" y="0" height="10"/></clipPath><clipPath id="92ce9b68e3"><path d="M 1.03125 5.523438 L 119.757812 5.523438 L 119.757812 39.410156 L 1.03125 39.410156 Z M 1.03125 5.523438 " clip-rule="nonzero"/></clipPath><clipPath id="506485fed6"><path d="M 0.03125 0.523438 L 118.757812 0.523438 L 118.757812 34.410156 L 0.03125 34.410156 Z M 0.03125 0.523438 " clip-rule="nonzero"/></clipPath><clipPath id="f6efa05046"><rect x="0" width="119" y="0" height="35"/></clipPath><clipPath id="8770ef6f4a"><path d="M 2.140625 5.523438 L 33.886719 5.523438 L 33.886719 37.269531 L 2.140625 37.269531 Z M 2.140625 5.523438 " clip-rule="nonzero"/></clipPath><clipPath id="7bf33fd846"><path d="M 8 12 L 23.296875 12 L 23.296875 27 L 8 27 Z M 8 12 " clip-rule="nonzero"/></clipPath><clipPath id="3193aa1281"><path d="M 13.222656 12.144531 L 33.886719 12.144531 L 33.886719 37.269531 L 13.222656 37.269531 Z M 13.222656 12.144531 " clip-rule="nonzero"/></clipPath><clipPath id="af073f55e1"><path d="M 2.140625 22.519531 L 22.011719 22.519531 L 22.011719 37.269531 L 2.140625 37.269531 Z M 2.140625 22.519531 " clip-rule="nonzero"/></clipPath><clipPath id="12a4b209ea"><path d="M 17.683594 22.527344 L 22.007812 27.097656 L 5.378906 42.839844 L 1.054688 38.273438 Z M 17.683594 22.527344 " clip-rule="nonzero"/></clipPath><clipPath id="f57c87b818"><path d="M 17.683594 22.527344 L 22.007812 27.097656 L 5.378906 42.839844 L 1.054688 38.273438 Z M 17.683594 22.527344 " clip-rule="nonzero"/></clipPath><clipPath id="fd23117977"><path d="M 12.132812 30.527344 L 13 30.527344 L 13 31.890625 L 12.132812 31.890625 Z M 12.132812 30.527344 " clip-rule="nonzero"/></clipPath><clipPath id="b1a93c5bd5"><path d="M 13 30.527344 L 14 30.527344 L 14 31.890625 L 13 31.890625 Z M 13 30.527344 " clip-rule="nonzero"/></clipPath><clipPath id="d985f0e3f5"><path d="M 14 30.527344 L 16 30.527344 L 16 31.890625 L 14 31.890625 Z M 14 30.527344 " clip-rule="nonzero"/></clipPath><clipPath id="555b07b3c6"><path d="M 16 30.527344 L 18 30.527344 L 18 31.890625 L 16 31.890625 Z M 16 30.527344 " clip-rule="nonzero"/></clipPath><clipPath id="fb1fbdf3d0"><path d="M 17 30.527344 L 19 30.527344 L 19 31.890625 L 17 31.890625 Z M 17 30.527344 " clip-rule="nonzero"/></clipPath><clipPath id="1aadebcf5a"><path d="M 19 30.527344 L 20 30.527344 L 20 31.890625 L 19 31.890625 Z M 19 30.527344 " clip-rule="nonzero"/></clipPath><clipPath id="e30e035c54"><path d="M 20 30.527344 L 21 30.527344 L 21 31.890625 L 20 31.890625 Z M 20 30.527344 " clip-rule="nonzero"/></clipPath><clipPath id="fe3acc67bd"><path d="M 21 30.527344 L 23 30.527344 L 23 31.890625 L 21 31.890625 Z M 21 30.527344 " clip-rule="nonzero"/></clipPath><clipPath id="d09f17ac20"><path d="M 23 30.527344 L 24 30.527344 L 24 31.890625 L 23 31.890625 Z M 23 30.527344 " clip-rule="nonzero"/></clipPath><clipPath id="d1fe79099e"><path d="M 8.566406 30.855469 L 11.730469 30.855469 L 11.730469 31.65625 L 8.566406 31.65625 Z M 8.566406 30.855469 " clip-rule="nonzero"/></clipPath><clipPath id="f9f21cc7c7"><path d="M 24.570312 30.855469 L 27.726562 30.855469 L 27.726562 31.65625 L 24.570312 31.65625 Z M 24.570312 30.855469 " clip-rule="nonzero"/></clipPath><clipPath id="1144575efe"><path d="M 3.523438 6.773438 L 13.371094 6.773438 L 13.371094 16.566406 L 3.523438 16.566406 Z M 3.523438 6.773438 " clip-rule="nonzero"/></clipPath><clipPath id="ddb4a9903e"><path d="M 9.039062 6.792969 L 13.363281 11.359375 L 7.863281 16.566406 L 3.539062 12 Z M 9.039062 6.792969 " clip-rule="nonzero"/></clipPath><clipPath id="4df0635220"><path d="M 9.039062 6.792969 L 13.363281 11.359375 L 7.863281 16.566406 L 3.539062 12 Z M 9.039062 6.792969 " clip-rule="nonzero"/></clipPath></defs><g clip-path="url(#423e2016b7)"><g clip-path="url(#fab2264afc)"><g transform="matrix(1, 0, 0, 1, 5, 7)"><g clip-path="url(#59731eef30)"><g clip-path="url(#0ff0deaec5)"><g clip-path="url(#ec3dd458e7)"><path fill="#ffffff" d="M 5.324219 0.402344 L 9.242188 4.542969 L 4.261719 9.257812 L 0.339844 5.117188 Z M 5.324219 0.402344 " fill-opacity="1" fill-rule="nonzero"/></g></g></g></g></g></g><g clip-path="url(#92ce9b68e3)"><g transform="matrix(1, 0, 0, 1, 1, 5)"><g clip-path="url(#f6efa05046)"><g clip-path="url(#506485fed6)"><path fill="#000000" d="M 0.03125 0.523438 L 118.777344 0.523438 L 118.777344 34.410156 L 0.03125 34.410156 Z M 0.03125 0.523438 " fill-opacity="1" fill-rule="nonzero"/></g></g></g></g><g clip-path="url(#8770ef6f4a)"><path fill="#ffffff" d="M -9.757812 -5.378906 L 46.054688 -5.378906 L 46.054688 50.433594 L -9.757812 50.433594 Z M -9.757812 -5.378906 " fill-opacity="1" fill-rule="nonzero"/><path fill="#000000" d="M -9.757812 -5.378906 L 46.054688 -5.378906 L 46.054688 50.433594 L -9.757812 50.433594 Z M -9.757812 -5.378906 " fill-opacity="1" fill-rule="nonzero"/></g><g clip-path="url(#7bf33fd846)"><path fill="#ffffff" d="M 18.355469 26.359375 L 13.53125 21.238281 L 12.03125 22.761719 L 12.03125 26.359375 L 8.730469 26.359375 L 8.730469 12.613281 L 12.03125 12.613281 L 12.03125 18.089844 L 17.507812 12.613281 L 22.179688 12.613281 L 15.882812 18.894531 L 23.027344 26.359375 Z M 18.355469 26.359375 " fill-opacity="1" fill-rule="nonzero"/></g><g clip-path="url(#3193aa1281)"><path fill="#000000" d="M 13.222656 12.144531 L 41.402344 12.144531 L 41.402344 42.640625 L 13.222656 42.640625 Z M 13.222656 12.144531 " fill-opacity="1" fill-rule="nonzero"/></g><path fill="#ffffff" d="M 23.3125 26.359375 L 18.488281 21.238281 L 16.988281 22.761719 L 16.988281 26.359375 L 13.6875 26.359375 L 13.6875 12.613281 L 16.988281 12.613281 L 16.988281 18.089844 L 22.464844 12.613281 L 27.136719 12.613281 L 20.839844 18.894531 L 27.984375 26.359375 Z M 23.3125 26.359375 " fill-opacity="1" fill-rule="nonzero"/><g clip-path="url(#af073f55e1)"><g clip-path="url(#12a4b209ea)"><g clip-path="url(#f57c87b818)"><path fill="#000000" d="M 17.683594 22.527344 L 22.007812 27.097656 L 5.378906 42.84375 L 1.054688 38.273438 Z M 17.683594 22.527344 " fill-opacity="1" fill-rule="nonzero"/></g></g></g><path fill="#ffffff" d="M 6.800781 29.777344 L 5.917969 28.84375 L 5.644531 29.121094 L 5.644531 29.777344 L 5.039062 29.777344 L 5.039062 27.265625 L 5.644531 27.265625 L 5.644531 28.265625 L 6.644531 27.265625 L 7.5 27.265625 L 6.347656 28.414062 L 7.65625 29.777344 Z M 6.800781 29.777344 " fill-opacity="1" fill-rule="nonzero"/><path fill="#ffffff" d="M 9.648438 29.777344 L 9.464844 29.425781 L 8.515625 29.425781 L 8.335938 29.777344 L 7.640625 29.777344 L 8.992188 27.265625 L 10.34375 29.777344 Z M 9.21875 28.953125 L 8.992188 28.511719 L 8.761719 28.953125 Z M 9.21875 28.953125 " fill-opacity="1" fill-rule="nonzero"/><path fill="#ffffff" d="M 12.140625 27.265625 L 12.746094 27.265625 L 12.746094 29.777344 L 11.078125 28.550781 L 11.078125 29.777344 L 10.472656 29.777344 L 10.472656 27.265625 L 12.140625 28.546875 Z M 12.140625 27.265625 " fill-opacity="1" fill-rule="nonzero"/><path fill="#ffffff" d="M 13.554688 28.792969 L 13.554688 29.238281 L 14.710938 29.238281 L 14.710938 29.777344 L 12.953125 29.777344 L 12.953125 27.265625 L 14.710938 27.265625 L 14.710938 27.804688 L 13.554688 27.804688 L 13.554688 28.25 L 14.535156 28.25 L 14.535156 28.792969 Z M 13.554688 28.792969 " fill-opacity="1" fill-rule="nonzero"/><path fill="#ffffff" d="M 16.703125 29.777344 L 15.820312 28.84375 L 15.542969 29.121094 L 15.542969 29.777344 L 14.941406 29.777344 L 14.941406 27.265625 L 15.542969 27.265625 L 15.542969 28.265625 L 16.546875 27.265625 L 17.402344 27.265625 L 16.25 28.414062 L 17.554688 29.777344 Z M 16.703125 29.777344 " fill-opacity="1" fill-rule="nonzero"/><path fill="#ffffff" d="M 17.652344 27.265625 L 18.253906 27.265625 L 18.253906 29.777344 L 17.652344 29.777344 Z M 17.652344 27.265625 " fill-opacity="1" fill-rule="nonzero"/><path fill="#ffffff" d="M 20.390625 27.28125 C 20.738281 27.28125 21.03125 27.402344 21.28125 27.648438 C 21.527344 27.890625 21.648438 28.1875 21.648438 28.535156 C 21.648438 28.882812 21.527344 29.179688 21.28125 29.425781 C 21.03125 29.671875 20.738281 29.792969 20.390625 29.792969 L 19.4375 29.792969 L 19.4375 27.28125 Z M 20.871094 29.015625 C 21 28.886719 21.066406 28.726562 21.066406 28.535156 C 21.066406 28.351562 21 28.191406 20.871094 28.054688 C 20.738281 27.921875 20.578125 27.855469 20.386719 27.855469 L 20.039062 27.855469 L 20.039062 29.214844 L 20.390625 29.214844 C 20.578125 29.214844 20.738281 29.148438 20.871094 29.015625 Z M 20.871094 29.015625 " fill-opacity="1" fill-rule="nonzero"/><path fill="#ffffff" d="M 22.484375 28.792969 L 22.484375 29.238281 L 23.636719 29.238281 L 23.636719 29.777344 L 21.878906 29.777344 L 21.878906 27.265625 L 23.636719 27.265625 L 23.636719 27.804688 L 22.484375 27.804688 L 22.484375 28.25 L 23.460938 28.25 L 23.460938 28.792969 Z M 22.484375 28.792969 " fill-opacity="1" fill-rule="nonzero"/><path fill="#ffffff" d="M 25.511719 27.265625 L 26.117188 27.265625 L 26.117188 29.777344 L 24.449219 28.550781 L 24.449219 29.777344 L 23.84375 29.777344 L 23.84375 27.265625 L 25.511719 28.546875 Z M 25.511719 27.265625 " fill-opacity="1" fill-rule="nonzero"/><path fill="#ffffff" d="M 27.96875 27.265625 L 28.574219 27.265625 L 28.574219 29.777344 L 26.902344 28.550781 L 26.902344 29.777344 L 26.300781 29.777344 L 26.300781 27.265625 L 27.96875 28.546875 Z M 27.96875 27.265625 " fill-opacity="1" fill-rule="nonzero"/><path fill="#ffffff" d="M 30.019531 27.277344 C 30.375 27.277344 30.683594 27.402344 30.933594 27.65625 C 31.1875 27.90625 31.3125 28.214844 31.3125 28.570312 C 31.3125 28.929688 31.1875 29.234375 30.933594 29.488281 C 30.683594 29.742188 30.375 29.867188 30.019531 29.867188 C 29.660156 29.867188 29.355469 29.742188 29.101562 29.488281 C 28.847656 29.234375 28.722656 28.929688 28.722656 28.570312 C 28.722656 28.214844 28.847656 27.90625 29.101562 27.65625 C 29.355469 27.402344 29.660156 27.277344 30.019531 27.277344 Z M 30.550781 29.105469 C 30.699219 28.957031 30.773438 28.78125 30.773438 28.570312 C 30.773438 28.363281 30.699219 28.1875 30.550781 28.039062 C 30.40625 27.890625 30.226562 27.816406 30.019531 27.816406 C 29.808594 27.816406 29.632812 27.890625 29.484375 28.039062 C 29.335938 28.1875 29.261719 28.363281 29.261719 28.570312 C 29.261719 28.78125 29.335938 28.957031 29.484375 29.105469 C 29.636719 29.253906 29.8125 29.324219 30.019531 29.324219 C 30.222656 29.324219 30.398438 29.253906 30.550781 29.105469 Z M 30.550781 29.105469 " fill-opacity="1" fill-rule="nonzero"/><g clip-path="url(#fd23117977)"><path fill="#ffffff" d="M 12.367188 30.828125 L 12.460938 30.828125 L 12.460938 31.585938 L 12.367188 31.585938 Z M 12.367188 30.828125 " fill-opacity="1" fill-rule="nonzero"/></g><g clip-path="url(#b1a93c5bd5)"><path fill="#ffffff" d="M 13.503906 31.585938 L 13.410156 31.585938 L 13.410156 30.828125 L 13.542969 30.828125 L 13.886719 31.496094 L 13.886719 30.828125 L 13.972656 30.828125 L 13.972656 31.585938 L 13.84375 31.585938 L 13.503906 30.921875 Z M 13.503906 31.585938 " fill-opacity="1" fill-rule="nonzero"/></g><g clip-path="url(#d985f0e3f5)"><path fill="#ffffff" d="M 15.25 31.597656 C 15.191406 31.597656 15.136719 31.585938 15.09375 31.566406 C 15.050781 31.546875 15.011719 31.515625 14.984375 31.480469 C 14.957031 31.445312 14.933594 31.402344 14.921875 31.355469 C 14.90625 31.308594 14.898438 31.257812 14.898438 31.207031 C 14.898438 31.15625 14.90625 31.105469 14.921875 31.058594 C 14.933594 31.011719 14.957031 30.972656 14.984375 30.9375 C 15.011719 30.898438 15.050781 30.871094 15.09375 30.851562 C 15.136719 30.832031 15.191406 30.820312 15.25 30.820312 C 15.308594 30.820312 15.359375 30.832031 15.40625 30.851562 C 15.449219 30.871094 15.488281 30.898438 15.515625 30.9375 C 15.542969 30.972656 15.566406 31.011719 15.582031 31.058594 C 15.59375 31.105469 15.601562 31.15625 15.601562 31.207031 C 15.601562 31.257812 15.59375 31.308594 15.582031 31.355469 C 15.566406 31.402344 15.542969 31.445312 15.515625 31.480469 C 15.488281 31.515625 15.449219 31.546875 15.40625 31.566406 C 15.359375 31.585938 15.308594 31.597656 15.25 31.597656 Z M 15.25 31.515625 C 15.304688 31.515625 15.355469 31.503906 15.394531 31.476562 C 15.429688 31.449219 15.460938 31.414062 15.480469 31.367188 C 15.5 31.320312 15.511719 31.265625 15.511719 31.207031 C 15.511719 31.148438 15.5 31.097656 15.480469 31.050781 C 15.460938 31.003906 15.429688 30.96875 15.394531 30.945312 C 15.355469 30.917969 15.304688 30.902344 15.25 30.902344 C 15.195312 30.902344 15.148438 30.917969 15.109375 30.945312 C 15.070312 30.96875 15.039062 31.003906 15.019531 31.050781 C 15 31.097656 14.988281 31.148438 14.988281 31.207031 C 14.988281 31.265625 15 31.320312 15.019531 31.367188 C 15.039062 31.414062 15.070312 31.449219 15.109375 31.476562 C 15.148438 31.503906 15.195312 31.515625 15.25 31.515625 Z M 15.25 31.515625 " fill-opacity="1" fill-rule="nonzero"/></g><g clip-path="url(#555b07b3c6)"><path fill="#ffffff" d="M 16.8125 31.585938 L 16.710938 31.585938 L 16.429688 30.828125 L 16.523438 30.828125 L 16.761719 31.496094 L 17 30.828125 L 17.09375 30.828125 Z M 16.8125 31.585938 " fill-opacity="1" fill-rule="nonzero"/></g><g clip-path="url(#fb1fbdf3d0)"><path fill="#ffffff" d="M 17.933594 31.585938 L 17.839844 31.585938 L 18.117188 30.828125 L 18.222656 30.828125 L 18.5 31.585938 L 18.410156 31.585938 L 18.339844 31.402344 L 18 31.402344 Z M 18.171875 30.921875 L 18.03125 31.320312 L 18.3125 31.320312 Z M 18.171875 30.921875 " fill-opacity="1" fill-rule="nonzero"/></g><g clip-path="url(#1aadebcf5a)"><path fill="#ffffff" d="M 19.578125 31.585938 L 19.484375 31.585938 L 19.484375 30.914062 L 19.230469 30.914062 L 19.230469 30.828125 L 19.835938 30.828125 L 19.835938 30.914062 L 19.578125 30.914062 Z M 19.578125 31.585938 " fill-opacity="1" fill-rule="nonzero"/></g><g clip-path="url(#e30e035c54)"><path fill="#ffffff" d="M 20.71875 30.828125 L 20.8125 30.828125 L 20.8125 31.585938 L 20.71875 31.585938 Z M 20.71875 30.828125 " fill-opacity="1" fill-rule="nonzero"/></g><g clip-path="url(#fe3acc67bd)"><path fill="#ffffff" d="M 22.085938 31.597656 C 22.027344 31.597656 21.976562 31.585938 21.929688 31.566406 C 21.886719 31.546875 21.851562 31.515625 21.820312 31.480469 C 21.792969 31.445312 21.769531 31.402344 21.757812 31.355469 C 21.742188 31.308594 21.734375 31.257812 21.734375 31.207031 C 21.734375 31.15625 21.742188 31.105469 21.757812 31.058594 C 21.769531 31.011719 21.792969 30.972656 21.820312 30.9375 C 21.851562 30.898438 21.886719 30.871094 21.929688 30.851562 C 21.976562 30.832031 22.027344 30.820312 22.085938 30.820312 C 22.144531 30.820312 22.195312 30.832031 22.242188 30.851562 C 22.285156 30.871094 22.324219 30.898438 22.351562 30.9375 C 22.382812 30.972656 22.402344 31.011719 22.417969 31.058594 C 22.433594 31.105469 22.4375 31.15625 22.4375 31.207031 C 22.4375 31.257812 22.433594 31.308594 22.417969 31.355469 C 22.402344 31.402344 22.382812 31.445312 22.351562 31.480469 C 22.324219 31.515625 22.285156 31.546875 22.242188 31.566406 C 22.195312 31.585938 22.144531 31.597656 22.085938 31.597656 Z M 22.085938 31.515625 C 22.144531 31.515625 22.191406 31.503906 22.230469 31.476562 C 22.269531 31.449219 22.296875 31.414062 22.316406 31.367188 C 22.335938 31.320312 22.347656 31.265625 22.347656 31.207031 C 22.347656 31.148438 22.335938 31.097656 22.316406 31.050781 C 22.296875 31.003906 22.269531 30.96875 22.230469 30.945312 C 22.191406 30.917969 22.144531 30.902344 22.085938 30.902344 C 22.03125 30.902344 21.984375 30.917969 21.945312 30.945312 C 21.90625 30.96875 21.875 31.003906 21.855469 31.050781 C 21.835938 31.097656 21.828125 31.148438 21.828125 31.207031 C 21.828125 31.265625 21.835938 31.320312 21.855469 31.367188 C 21.875 31.414062 21.90625 31.449219 21.945312 31.476562 C 21.984375 31.503906 22.03125 31.515625 22.085938 31.515625 Z M 22.085938 31.515625 " fill-opacity="1" fill-rule="nonzero"/></g><g clip-path="url(#d09f17ac20)"><path fill="#ffffff" d="M 23.453125 31.585938 L 23.359375 31.585938 L 23.359375 30.828125 L 23.496094 30.828125 L 23.835938 31.496094 L 23.835938 30.828125 L 23.925781 30.828125 L 23.925781 31.585938 L 23.792969 31.585938 L 23.453125 30.921875 Z M 23.453125 31.585938 " fill-opacity="1" fill-rule="nonzero"/></g><g clip-path="url(#d1fe79099e)"><path fill="#ffffff" d="M 11.722656 31.691406 L 11.722656 30.820312 L 8.566406 30.820312 Z M 11.722656 31.691406 " fill-opacity="1" fill-rule="nonzero"/></g><g clip-path="url(#f9f21cc7c7)"><path fill="#ffffff" d="M 24.570312 31.691406 L 24.570312 30.820312 L 27.726562 30.820312 Z M 24.570312 31.691406 " fill-opacity="1" fill-rule="nonzero"/></g><g clip-path="url(#1144575efe)"><g clip-path="url(#ddb4a9903e)"><g clip-path="url(#4df0635220)"><path fill="#000000" d="M 9.039062 6.792969 L 13.363281 11.359375 L 7.867188 16.5625 L 3.542969 11.996094 Z M 9.039062 6.792969 " fill-opacity="1" fill-rule="nonzero"/></g></g></g><g fill="#ffffff" fill-opacity="1"><g transform="translate(34.920326, 28.829311)"><g><path d="M 8.792969 -4.964844 L 8.792969 -0.894531 L 6.046875 -0.894531 L 7.714844 -1.609375 C 7.410156 -2.542969 6.613281 -3.929688 5.839844 -4.964844 Z M 6.492188 -11.175781 C 7.957031 -12.394531 9.21875 -13.71875 10.097656 -14.941406 C 10.992188 -13.71875 12.335938 -12.394531 13.839844 -11.175781 Z M 14.167969 -4.964844 C 13.71875 -3.886719 12.90625 -2.402344 12.234375 -1.445312 L 13.554688 -0.894531 L 11.335938 -0.894531 L 11.335938 -4.964844 L 17.605469 -4.964844 L 17.605469 -7.042969 L 11.335938 -7.042969 L 11.335938 -9.058594 L 15.226562 -9.058594 L 15.226562 -10.117188 C 16.242188 -9.382812 17.300781 -8.710938 18.320312 -8.183594 C 18.765625 -8.9375 19.316406 -9.75 19.925781 -10.359375 C 16.710938 -11.664062 13.433594 -14.226562 11.234375 -17.300781 L 8.730469 -17.300781 C 7.226562 -14.859375 3.96875 -11.804688 0.507812 -10.117188 C 1.039062 -9.605469 1.710938 -8.730469 2.015625 -8.164062 C 3.054688 -8.710938 4.089844 -9.363281 5.046875 -10.054688 L 5.046875 -9.058594 L 8.792969 -9.058594 L 8.792969 -7.042969 L 2.605469 -7.042969 L 2.605469 -4.964844 L 5.71875 -4.964844 L 3.867188 -4.171875 C 4.578125 -3.175781 5.25 -1.8125 5.558594 -0.894531 L 1.585938 -0.894531 L 1.585938 1.179688 L 18.808594 1.179688 L 18.808594 -0.894531 L 14.207031 -0.894531 C 14.917969 -1.75 15.714844 -2.992188 16.488281 -4.113281 Z M 14.167969 -4.964844 "/></g></g></g><g fill="#ffffff" fill-opacity="1"><g transform="translate(55.269292, 28.829311)"><g><path d="M 19.113281 -10.117188 L 19.113281 -12.519531 L 11.480469 -12.519531 L 11.480469 -17.238281 L 8.894531 -17.238281 L 8.894531 -12.519531 L 1.300781 -12.519531 L 1.300781 -10.117188 L 7.835938 -10.117188 C 6.167969 -6.921875 3.378906 -3.847656 0.367188 -2.21875 C 0.9375 -1.710938 1.769531 -0.773438 2.179688 -0.140625 C 4.785156 -1.769531 7.125 -4.355469 8.894531 -7.308594 L 8.894531 1.769531 L 11.480469 1.769531 L 11.480469 -7.410156 C 13.269531 -4.476562 15.613281 -1.871094 18.175781 -0.222656 C 18.5625 -0.894531 19.398438 -1.851562 19.988281 -2.339844 C 16.996094 -3.96875 14.144531 -7 12.457031 -10.117188 Z M 19.113281 -10.117188 "/></g></g></g><g fill="#ffffff" fill-opacity="1"><g transform="translate(75.618258, 28.829311)"><g><path d="M 3.398438 -12.355469 L 8.9375 -12.355469 L 8.9375 -8.121094 L 11.296875 -8.121094 L 11.296875 -12.355469 L 16.894531 -12.355469 L 16.894531 -9.832031 L 19.132812 -9.832031 L 19.132812 -13.964844 L 11.296875 -13.964844 L 11.296875 -14.738281 L 17.648438 -14.738281 L 17.648438 -16.527344 L 2.644531 -16.527344 L 2.644531 -14.738281 L 8.9375 -14.738281 L 8.9375 -13.964844 L 1.261719 -13.964844 L 1.261719 -9.832031 L 3.398438 -9.832031 Z M 12.070312 -8.324219 L 16.507812 -8.324219 L 16.507812 -9.648438 L 12.070312 -9.648438 Z M 12.070312 -11.664062 L 12.070312 -10.359375 L 16.039062 -10.359375 L 16.039062 -11.664062 Z M 8.203125 -11.664062 L 4.191406 -11.664062 L 4.191406 -10.359375 L 8.203125 -10.359375 Z M 3.804688 -8.324219 L 8.203125 -8.324219 L 8.203125 -9.648438 L 3.804688 -9.648438 Z M 5.433594 -2.707031 L 5.433594 -3.582031 L 8.8125 -3.582031 L 8.8125 -2.707031 Z M 8.8125 -5.945312 L 8.8125 -5.046875 L 5.433594 -5.046875 L 5.433594 -5.945312 Z M 14.816406 -5.046875 L 11.132812 -5.046875 L 11.132812 -5.945312 L 14.816406 -5.945312 Z M 11.132812 -2.707031 L 11.132812 -3.582031 L 14.816406 -3.582031 L 14.816406 -2.707031 Z M 12.597656 -0.140625 C 11.359375 -0.140625 11.132812 -0.265625 11.132812 -1.019531 L 11.132812 -1.078125 L 17.21875 -1.078125 L 17.21875 -7.570312 L 3.132812 -7.570312 L 3.132812 -0.183594 L 5.433594 -0.183594 L 5.433594 -1.078125 L 8.8125 -1.078125 L 8.8125 -1.019531 C 8.8125 1.121094 9.585938 1.710938 12.375 1.710938 L 16.648438 1.710938 C 18.867188 1.710938 19.519531 1.039062 19.804688 -1.40625 C 19.195312 -1.527344 18.277344 -1.832031 17.789062 -2.179688 C 17.648438 -0.449219 17.464844 -0.140625 16.445312 -0.140625 Z M 12.597656 -0.140625 "/></g></g></g><g fill="#ffffff" fill-opacity="1"><g transform="translate(95.967224, 28.829311)"><g><path d="M 11.4375 -1.484375 L 11.4375 -6.65625 L 17.605469 -6.65625 L 17.605469 -9.058594 L 11.4375 -9.058594 L 11.4375 -13.617188 L 18.398438 -13.617188 L 18.398438 -16.019531 L 1.972656 -16.019531 L 1.972656 -13.617188 L 8.894531 -13.617188 L 8.894531 -9.058594 L 2.929688 -9.058594 L 2.929688 -6.65625 L 8.894531 -6.65625 L 8.894531 -1.484375 L 0.996094 -1.484375 L 0.996094 0.894531 L 19.4375 0.894531 L 19.4375 -1.484375 Z M 11.4375 -1.484375 "/></g></g></g></svg>